<?xml version="1.0" encoding="UTF-8" standalone="no"?>
<!-- Created with Inkscape (http://www.inkscape.org/) -->

<svg
   xmlns:dc="http://purl.org/dc/elements/1.1/"
   xmlns:cc="http://creativecommons.org/ns#"
   xmlns:rdf="http://www.w3.org/1999/02/22-rdf-syntax-ns#"
   xmlns:svg="http://www.w3.org/2000/svg"
   xmlns="http://www.w3.org/2000/svg"
   xmlns:sodipodi="http://sodipodi.sourceforge.net/DTD/sodipodi-0.dtd"
   xmlns:inkscape="http://www.inkscape.org/namespaces/inkscape"
   width="210mm"
   height="297mm"
   viewBox="0 0 210 297"
   version="1.1"
   id="svg1059"
   inkscape:version="0.92.4 (5da689c313, 2019-01-14)"
   sodipodi:docname="body.svg">
  <defs
     id="defs1053" />
  <sodipodi:namedview
     id="base"
     pagecolor="#ffffff"
     bordercolor="#666666"
     borderopacity="1.0"
     inkscape:pageopacity="0.0"
     inkscape:pageshadow="2"
     inkscape:zoom="0.98994949"
     inkscape:cx="162.96238"
     inkscape:cy="449.75536"
     inkscape:document-units="mm"
     inkscape:current-layer="layer1"
     showgrid="false"
     inkscape:window-width="1360"
     inkscape:window-height="705"
     inkscape:window-x="-8"
     inkscape:window-y="-8"
     inkscape:window-maximized="1" />
  <metadata
     id="metadata1056">
    <rdf:RDF>
      <cc:Work
         rdf:about="">
        <dc:format>image/svg+xml</dc:format>
        <dc:type
           rdf:resource="http://purl.org/dc/dcmitype/StillImage" />
        <dc:title />
      </cc:Work>
    </rdf:RDF>
  </metadata>
  <g
     inkscape:label="Capa 1"
     inkscape:groupmode="layer"
     id="layer1">
    <path
       style="fill:#000000;stroke:none;stroke-width:0.03527778"
       inkscape:connector-curvature="0"
       id="path7280"
       d="m 101.94356,122.37211 c -0.42333,0.42334 -0.74083,1.02306 -0.74083,1.37584 0,1.30527 1.05833,1.72861 5.00944,1.97555 3.4925,0.24695 3.81,0.21167 4.48028,-0.45861 0.88194,-0.88194 0.91722,-1.41111 0.24694,-2.36361 -0.42333,-0.52917 -0.9525,-0.67028 -2.92805,-0.70556 -1.30528,0 -3.06917,-0.14111 -3.88056,-0.28222 -1.23472,-0.21167 -1.5875,-0.14111 -2.18722,0.45861 z" />
    <path
       style="fill:#000000;stroke:none;stroke-width:0.03527778"
       d="m 69.790386,132.16256 c -0.9525,0.98778 -1.02306,1.23473 -1.30528,5.25639 -0.17639,2.29306 -0.28222,7.05556 -0.24694,10.54806 l 0.0353,6.35 1.62278,5.29166 c 2.29306,7.65528 3.91583,12.20611 5.29167,14.71084 0.67028,1.23472 1.30528,2.61055 1.44639,3.10444 0.3175,1.09361 3.06916,5.715 6.0325,10.23055 1.19944,1.83445 2.39889,3.77473 2.68111,4.30389 0.24694,0.52917 1.27,2.15195 2.2225,3.63361 0.98778,1.48167 3.03389,4.62139 4.58611,6.98501 4.33916,6.59694 9.454444,12.59416 10.724444,12.59416 0.45861,0 1.34056,-0.81139 2.39889,-2.2225 0.91722,-1.19944 3.59833,-4.58611 5.96195,-7.54944 2.36361,-2.92806 5.00944,-6.35 5.82083,-7.58473 0.84667,-1.23472 2.25778,-3.175 3.13972,-4.33916 1.97556,-2.54 4.23333,-6.38528 5.64444,-9.48972 0.56445,-1.27 2.01084,-4.02167 3.24556,-6.10306 3.98639,-6.73805 6.24417,-11.99444 7.37306,-17.21555 1.905,-8.89 2.43416,-12.7 2.43416,-17.49778 0,-5.18583 -0.56444,-10.44222 -1.16416,-11.21833 -0.52917,-0.635 -2.92806,-0.35278 -8.89,0.98777 -2.50473,0.56445 -7.12611,1.44639 -10.23056,1.97556 -5.32694,0.88194 -6.13833,0.9525 -14.11111,0.77611 -7.337784,-0.14111 -9.313334,-0.3175 -14.816674,-1.27 -3.4925,-0.59972 -7.37305,-1.19944 -8.64305,-1.30528 -2.08139,-0.21166 -7.51417,-1.23472 -9.41917,-1.76389 -0.59972,-0.17638 -1.05833,0.0353 -1.83444,0.81139 z m 25.89389,4.79778 4.586114,0.45861 -2.257784,1.48167 c -1.27,0.81139 -2.36361,1.55222 -2.43417,1.65805 -0.0706,0.0706 1.16417,1.55223 2.75167,3.24556 1.5875,1.69333 3.104444,3.59833 3.386674,4.23333 0.28222,0.635 0.49388,2.2225 0.49388,3.52778 0,2.39889 0.67028,9.98361 1.5875,17.92111 0.24695,2.32833 0.38806,4.30389 0.3175,4.40972 -0.10583,0.0705 -0.91722,-0.24694 -1.79916,-0.70555 -4.762504,-2.54 -10.160004,-13.47611 -15.310564,-31.18556 -0.9525,-3.28083 -1.72861,-6.06777 -1.72861,-6.20889 0,-0.14111 1.30528,0 2.92806,0.24695 1.5875,0.28222 4.97416,0.67028 7.47889,0.91722 z m 26.987504,-0.3175 c 0,0.91722 -1.41112,7.44361 -2.64584,12.02972 -3.28083,12.55889 -7.62,21.41361 -11.78278,24.16528 -0.84666,0.59972 -1.62277,0.98778 -1.72861,0.91722 -0.0706,-0.10583 0.0353,-1.76389 0.24695,-3.73944 0.21166,-1.94028 0.38805,-7.16139 0.38805,-11.57111 0.0353,-4.40973 0.17639,-8.67834 0.3175,-9.48973 0.17639,-0.9525 0.88195,-2.25777 1.83445,-3.45722 2.57528,-3.24555 3.4925,-4.51555 3.4925,-4.79778 0,-0.14111 -0.98778,-0.98777 -2.18722,-1.86972 l -2.18723,-1.62278 4.23334,-0.0353 c 2.29305,-0.0353 5.22111,-0.24694 6.49111,-0.49388 3.175,-0.59973 3.52778,-0.59973 3.52778,-0.0353 z m 10.83027,4.30389 c 0.10584,0.28222 0.0353,0.88194 -0.17639,1.30528 -0.17639,0.42333 -0.45861,1.05833 -0.56444,1.41111 -0.17639,0.56444 -0.635,0.59972 -4.16278,0.52916 -3.66889,-0.10583 -3.98639,-0.17638 -4.09222,-0.81138 -0.10583,-0.38806 -0.35278,-0.84667 -0.635,-0.98778 -0.28222,-0.14111 -0.49389,-0.49389 -0.49389,-0.70556 0,-1.09361 0.88194,-1.30528 5.36222,-1.30528 3.81,0 4.58611,0.10584 4.7625,0.56445 z m -20.81389,52.45805 c 2.18723,0.0706 4.05695,0.21167 4.19806,0.3175 0.24694,0.28222 -2.75167,4.445 -5.85611,8.21973 -1.30528,1.55222 -3.66889,4.48027 -5.29167,6.49111 l -2.96333,3.66888 -2.2225,-2.43416 c -2.610564,-2.8575 -7.478894,-9.63084 -8.784174,-12.24139 -0.49389,-1.02306 -1.48166,-2.39889 -2.11666,-3.10445 l -1.23473,-1.27 10.16,0.14112 c 5.573894,0.0706 11.959174,0.17638 14.111114,0.21166 z"
       id="path7284"
       inkscape:connector-curvature="0" />
    <path
       style="opacity:0;fill:#ffffff;fill-opacity:1;stroke-width:0.50507629"
       d="m 387.97778,654.8151 c -3.66059,-1.8325 -5.45204,-3.15277 -8.7639,-6.45889 -13.75985,-13.73598 -28.13176,-43.17223 -42.45219,-86.94973 -6.33767,-19.37423 -14.42589,-47.45818 -13.83748,-48.04658 0.17118,-0.17119 5.49216,0.40155 11.82439,1.27276 11.30173,1.55492 30.16476,3.6909 38.73731,4.38647 2.3887,0.19382 4.32856,0.4916 4.31078,0.66174 -0.0178,0.17015 -3.20015,2.35491 -7.07196,4.85504 -3.87181,2.50013 -7.65721,5.02989 -8.412,5.6217 l -1.37235,1.07601 1.37157,1.95445 c 0.75436,1.07494 4.35839,5.25006 8.00894,9.27805 7.04813,7.77682 12.42024,14.41404 13.71031,16.93904 1.09257,2.13844 1.7703,7.82427 2.40587,20.18406 0.55342,10.7621 2.47139,32.20098 4.75292,53.12741 1.0371,9.51238 2.26928,22.43184 2.29117,24.02299 0.01,0.70075 -0.88205,0.38893 -5.50338,-1.92452 z"
       id="path4934"
       inkscape:connector-curvature="0"
       transform="scale(0.26458333)" />
    <path
       style="opacity:1;fill:#ffffff;fill-opacity:1;stroke-width:0.50507629"
       d="m 402.58206,656.01163 c 0.002,-0.36353 0.23762,-3.27474 0.52275,-6.46934 1.29999,-14.56486 1.51947,-19.66999 2.00855,-46.71956 0.2863,-15.83414 0.7154,-31.58959 0.95355,-35.01212 0.39513,-5.67841 0.59107,-6.54001 2.23977,-9.84899 0.99372,-1.99442 3.02403,-5.2172 4.51179,-7.16174 10.64034,-13.90717 13.04982,-17.22399 13.33358,-18.35458 0.37745,-1.50387 0.0115,-1.85449 -9.2861,-8.89737 l -6.16739,-4.67175 13.99607,-0.29608 c 13.60517,-0.2878 22.46182,-1.04679 30.58175,-2.62074 2.17732,-0.42205 4.84791,-0.76736 5.93464,-0.76736 1.96544,0 1.97588,0.0106 1.97588,2.00186 0,5.37744 -9.46726,45.01991 -15.12313,63.32543 -5.33987,17.28278 -10.68098,30.87007 -17.04248,43.35451 -6.48397,12.72479 -12.92278,21.74405 -19.24705,26.96061 -3.78054,3.11836 -9.19866,6.16996 -9.19218,5.17722 z"
       id="path4936"
       inkscape:connector-curvature="0"
       transform="scale(0.26458333)" />
    <path
       style="opacity:1;fill:#ffffff;fill-opacity:1;stroke-width:0.50507629"
       d="m 387.97778,654.8151 c -3.66059,-1.8325 -5.45204,-3.15277 -8.7639,-6.45889 -13.75985,-13.73598 -28.13176,-43.17223 -42.45219,-86.94973 -6.33767,-19.37423 -14.42589,-47.45818 -13.83748,-48.04658 0.17118,-0.17119 5.49216,0.40155 11.82439,1.27276 11.30173,1.55492 30.16476,3.6909 38.73731,4.38647 2.3887,0.19382 4.32856,0.4916 4.31078,0.66174 -0.0178,0.17015 -3.20015,2.35491 -7.07196,4.85504 -3.87181,2.50013 -7.65721,5.02989 -8.412,5.6217 l -1.37235,1.07601 1.37157,1.95445 c 0.75436,1.07494 4.35839,5.25006 8.00894,9.27805 7.04813,7.77682 12.42024,14.41404 13.71031,16.93904 1.09257,2.13844 1.7703,7.82427 2.40587,20.18406 0.55342,10.7621 2.47139,32.20098 4.75292,53.12741 1.0371,9.51238 2.26928,22.43184 2.29117,24.02299 0.01,0.70075 -0.88205,0.38893 -5.50338,-1.92452 z"
       id="path4938"
       inkscape:connector-curvature="0"
       transform="scale(0.26458333)" />
    <path
       style="opacity:1;fill:#ffffff;fill-opacity:1;stroke-width:1.01015258"
       d="m 380.78363,792.41689 c -9.97002,-11.36818 -23.23227,-29.48095 -30.50918,-41.66758 -3.4838,-5.8343 -8.16834,-12.76702 -10.41011,-15.40604 l -4.07594,-4.79822 28.59286,0.1008 c 36.27071,0.12786 75.19253,1.20625 76.09219,2.10824 0.93214,0.93455 -7.55399,13.06532 -19.37952,27.7027 -5.33639,6.60527 -14.72841,18.25991 -20.87115,25.89918 -6.14274,7.63928 -11.48467,13.8896 -11.87097,13.8896 -0.38629,0 -3.79197,-3.52291 -7.56818,-7.82868 z"
       id="path4940"
       inkscape:connector-curvature="0"
       transform="scale(0.26458333)" />
    <path
       style="opacity:1;fill:#ffffff;fill-opacity:1;stroke-width:1.01015258"
       d="m 475.03979,543.95256 c -1.81641,-0.27483 -3.32069,-1.4535 -4.31909,-3.38418 -0.84257,-1.62936 -1.97485,-2.96247 -2.51616,-2.96247 -1.78653,0 -1.02304,-3.94875 0.96968,-5.01522 2.67575,-1.43202 34.07696,-1.39422 34.96465,0.0421 0.78406,1.26865 -2.37549,10.1806 -3.99595,11.27112 -1.13489,0.76375 -20.13363,0.80059 -25.10313,0.0487 z"
       id="path4942"
       inkscape:connector-curvature="0"
       transform="scale(0.26458333)" />
  </g>
</svg>
