<?xml version="1.0" encoding="UTF-8" standalone="no"?>
<!-- Created with Inkscape (http://www.inkscape.org/) -->

<svg
   xmlns:dc="http://purl.org/dc/elements/1.1/"
   xmlns:cc="http://creativecommons.org/ns#"
   xmlns:rdf="http://www.w3.org/1999/02/22-rdf-syntax-ns#"
   xmlns:svg="http://www.w3.org/2000/svg"
   xmlns="http://www.w3.org/2000/svg"
   xmlns:sodipodi="http://sodipodi.sourceforge.net/DTD/sodipodi-0.dtd"
   xmlns:inkscape="http://www.inkscape.org/namespaces/inkscape"
   width="210mm"
   height="297mm"
   viewBox="0 0 210 297"
   version="1.1"
   id="svg930"
   inkscape:version="0.92.4 (5da689c313, 2019-01-14)"
   sodipodi:docname="head.svg">
  <defs
     id="defs924" />
  <sodipodi:namedview
     id="base"
     pagecolor="#ffffff"
     bordercolor="#666666"
     borderopacity="1.0"
     inkscape:pageopacity="0.0"
     inkscape:pageshadow="2"
     inkscape:zoom="0.70000001"
     inkscape:cx="471.25823"
     inkscape:cy="896.89708"
     inkscape:document-units="mm"
     inkscape:current-layer="layer1"
     showgrid="false"
     inkscape:window-width="1366"
     inkscape:window-height="705"
     inkscape:window-x="-8"
     inkscape:window-y="-8"
     inkscape:window-maximized="1" />
  <metadata
     id="metadata927">
    <rdf:RDF>
      <cc:Work
         rdf:about="">
        <dc:format>image/svg+xml</dc:format>
        <dc:type
           rdf:resource="http://purl.org/dc/dcmitype/StillImage" />
        <dc:title />
      </cc:Work>
    </rdf:RDF>
  </metadata>
  <g
     inkscape:label="Capa 1"
     inkscape:groupmode="layer"
     id="layer1">
    <g
       style="fill:#000000;stroke:none"
       id="g875"
       transform="matrix(0.03527778,0,0,-0.03527778,20.499956,201.251)">
      <g
         id="g886"
         transform="translate(0,-113.49577)">
        <g
           transform="translate(10.317797,72.224579)"
           id="g878">
          <path
             inkscape:connector-curvature="0"
             id="path7270"
             d="m 2609.589,4620.1398 c -14,-16 -37,-46 -51,-67 -15,-22 -46,-53 -69,-68 -37,-25 -48,-28 -83,-21 -22,4 -70,8 -108,8 -75,-1 -103,-18 -123,-78 -11,-32 -12,-32 -70,-30 -195,8 -472,5 -496,-5 -41,-17 -55,-47 -74,-157 -15,-87 -16,-148 -11,-465 7,-417 14,-488 60,-580 35,-70 86,-111 164,-132 22,-6 287,-11 643,-14 l 605,-4 40,23 c 27,15 47,37 63,68 23,47 23,49 24,485 1,242 -1,459 -4,484 -4,25 -10,77 -16,115 -18,141 -42,158 -217,160 -60,1 -181,6 -269,10 l -159,8 82,44 c 78,43 92,58 71,79 -6,6 4,31 31,72 23,34 38,69 35,77 -9,23 -40,18 -68,-12 z m -298,-332 c 579,-18 691,-25 707,-47 26,-36 36,-96 24,-146 -7,-33 -8,-71 -1,-125 6,-47 8,-225 5,-447 -7,-387 -10,-414 -52,-431 -28,-11 -612,-13 -888,-3 -259,9 -383,26 -419,57 -60,53 -75,153 -83,556 -7,379 4,535 39,572 32,34 28,34 668,14 z" />
        </g>
        <g
           id="g867">
          <path
             inkscape:connector-curvature="0"
             id="path7272"
             d="m 1873,3989 c -41,-42 9,-69 127,-69 72,0 77,-1 88,-25 8,-16 20,-25 35,-25 25,0 57,28 57,48 0,7 11,12 24,12 26,0 50,23 44,41 -2,7 -46,12 -123,14 -65,2 -146,7 -179,10 -44,5 -65,3 -73,-6 z" />
          <path
             inkscape:connector-curvature="0"
             id="path7274"
             d="m 2365,3991 c -32,-7 -46,-38 -23,-52 7,-5 33,-9 58,-9 33,0 50,-6 63,-20 9,-11 28,-20 42,-20 14,0 29,8 35,20 9,17 22,20 93,21 45,1 95,4 112,8 37,8 46,38 13,45 -39,8 -361,14 -393,7 z" />
          <path
             inkscape:connector-curvature="0"
             id="path7276"
             d="m 2251,3569 c -37,-36 -40,-75 -10,-113 46,-58 126,-19 182,90 14,27 14,34 3,43 -11,9 -21,1 -51,-39 -49,-67 -95,-90 -109,-55 -9,25 4,44 32,47 44,5 39,57 -5,58 -6,0 -25,-14 -42,-31 z" />
        </g>
      </g>
    </g>
    <path
       style="fill:#ffffff;stroke:#000000;stroke-width:2.28571439;stroke-miterlimit:4;stroke-dasharray:none;stroke-opacity:1"
       d="m 347.97251,352.9772 c -23.52274,-1.16977 -35.5926,-2.96733 -41.93022,-6.24464 -9.34433,-4.83214 -11.91521,-22.81014 -12.17084,-85.10996 -0.19788,-48.22322 0.63994,-59.4946 4.80223,-64.60582 2.6364,-3.23745 2.79592,-3.25 37.40183,-2.9427 37.21463,0.33047 109.97385,2.68181 129.49075,4.18472 8.15861,0.62826 12.85685,1.70629 15,3.44182 l 3.12054,2.52704 v 69.05461 c 0,79.98466 0.142,78.87156 -10.2483,80.29572 -8.65986,1.18696 -98.13179,0.75853 -125.46599,-0.60079 z m 42.59129,-36.88102 c 7.14461,-4.71073 14.24193,-17.45768 10.87782,-19.53682 -0.97924,-0.6052 -4.79308,2.28228 -9.40564,7.12108 -7.60072,7.9735 -10.76644,9.25843 -11.64562,4.72682 -0.25873,-1.33357 1.20927,-3.05443 3.57143,-4.18658 5.28974,-2.53531 5.4564,-7.43036 0.27345,-8.03165 -2.7442,-0.31836 -4.73709,0.75466 -7.5,4.03818 -4.53147,5.38535 -4.76744,9.7328 -0.8019,14.77417 3.53976,4.50007 8.86178,4.89832 14.63046,1.0948 z m -23.58578,-59.44182 c 1.53137,-1.94682 4.47089,-4.18091 6.53226,-4.96464 2.34166,-0.8903 3.74795,-2.51029 3.74795,-4.31747 0,-2.38063 -0.94803,-2.9019 -5.35715,-2.94558 -2.94642,-0.0292 -13.63865,-0.61923 -23.76049,-1.31119 -19.70926,-1.34738 -21.59249,-1.13995 -23.00218,2.53364 -1.63693,4.26578 3.90734,6.90474 16.65633,7.92809 9.57371,0.76847 12.27415,1.50649 13.85202,3.78569 2.68829,3.8832 7.97966,3.55233 11.33126,-0.70854 z m 48.84949,-1.45839 c 1.53918,-1.39293 6.95142,-2.46642 15.49124,-3.07259 7.46133,-0.52962 14.19508,-1.76343 15.60393,-2.85909 2.33765,-1.81793 2.3209,-2.0491 -0.29464,-4.07026 -4.06887,-3.1442 -55.31843,-3.1603 -57.92614,-0.0182 -3.13909,3.78237 -0.58431,6.17005 7.71077,7.20645 4.34661,0.54308 8.64373,1.88003 9.54916,2.971 2.15967,2.60224 6.89993,2.52665 9.86568,-0.15732 z"
       id="path62"
       inkscape:connector-curvature="0"
       transform="scale(0.26458333)" />
  </g>
</svg>
