<?xml version="1.0" encoding="UTF-8" standalone="no"?>
<!-- Created with Inkscape (http://www.inkscape.org/) -->

<svg
   xmlns:dc="http://purl.org/dc/elements/1.1/"
   xmlns:cc="http://creativecommons.org/ns#"
   xmlns:rdf="http://www.w3.org/1999/02/22-rdf-syntax-ns#"
   xmlns:svg="http://www.w3.org/2000/svg"
   xmlns="http://www.w3.org/2000/svg"
   xmlns:sodipodi="http://sodipodi.sourceforge.net/DTD/sodipodi-0.dtd"
   xmlns:inkscape="http://www.inkscape.org/namespaces/inkscape"
   width="210mm"
   height="297mm"
   viewBox="0 0 210 297"
   version="1.1"
   id="svg930"
   inkscape:version="0.92.4 (5da689c313, 2019-01-14)"
   sodipodi:docname="head2.svg">
  <defs
     id="defs924" />
  <sodipodi:namedview
     id="base"
     pagecolor="#ffffff"
     bordercolor="#666666"
     borderopacity="1.0"
     inkscape:pageopacity="0.0"
     inkscape:pageshadow="2"
     inkscape:zoom="1.979899"
     inkscape:cx="249.17327"
     inkscape:cy="846.40676"
     inkscape:document-units="mm"
     inkscape:current-layer="layer1"
     showgrid="false"
     inkscape:window-width="1360"
     inkscape:window-height="705"
     inkscape:window-x="-8"
     inkscape:window-y="-8"
     inkscape:window-maximized="1" />
  <metadata
     id="metadata927">
    <rdf:RDF>
      <cc:Work
         rdf:about="">
        <dc:format>image/svg+xml</dc:format>
        <dc:type
           rdf:resource="http://purl.org/dc/dcmitype/StillImage" />
        <dc:title></dc:title>
      </cc:Work>
    </rdf:RDF>
  </metadata>
  <g
     inkscape:label="Capa 1"
     inkscape:groupmode="layer"
     id="layer1">
    <g
       style="fill:#000000;stroke:none"
       id="g875"
       transform="matrix(0.03527778,0,0,-0.03527778,20.499956,201.251)">
      <g
         id="g886"
         transform="translate(0,-113.49577)"
         inkscape:label="g886">
        <g
           transform="translate(10.317797,72.224579)"
           id="g878">
          <path
             inkscape:connector-curvature="0"
             id="path7270"
             d="m 2609.589,4620.1398 c -14,-16 -37,-46 -51,-67 -15,-22 -46,-53 -69,-68 -37,-25 -48,-28 -83,-21 -22,4 -70,8 -108,8 -75,-1 -103,-18 -123,-78 -11,-32 -12,-32 -70,-30 -195,8 -472,5 -496,-5 -41,-17 -55,-47 -74,-157 -15,-87 -16,-148 -11,-465 7,-417 14,-488 60,-580 35,-70 86,-111 164,-132 22,-6 287,-11 643,-14 l 605,-4 40,23 c 27,15 47,37 63,68 23,47 23,49 24,485 1,242 -1,459 -4,484 -4,25 -10,77 -16,115 -18,141 -42,158 -217,160 -60,1 -181,6 -269,10 l -159,8 82,44 c 78,43 92,58 71,79 -6,6 4,31 31,72 23,34 38,69 35,77 -9,23 -40,18 -68,-12 z m -298,-332 c 579,-18 691,-25 707,-47 26,-36 36,-96 24,-146 -7,-33 -8,-71 -1,-125 6,-47 8,-225 5,-447 -7,-387 -10,-414 -52,-431 -28,-11 -612,-13 -888,-3 -259,9 -383,26 -419,57 -60,53 -75,153 -83,556 -7,379 4,535 39,572 32,34 28,34 668,14 z" />
        </g>
        <g
           id="g867">
          <path
             inkscape:connector-curvature="0"
             id="path7272"
             d="m 1873,3989 c -41,-42 9,-69 127,-69 72,0 77,-1 88,-25 8,-16 20,-25 35,-25 25,0 57,28 57,48 0,7 11,12 24,12 26,0 50,23 44,41 -2,7 -46,12 -123,14 -65,2 -146,7 -179,10 -44,5 -65,3 -73,-6 z" />
          <path
             inkscape:connector-curvature="0"
             id="path7274"
             d="m 2365,3991 c -32,-7 -46,-38 -23,-52 7,-5 33,-9 58,-9 33,0 50,-6 63,-20 9,-11 28,-20 42,-20 14,0 29,8 35,20 9,17 22,20 93,21 45,1 95,4 112,8 37,8 46,38 13,45 -39,8 -361,14 -393,7 z" />
          <path
             inkscape:connector-curvature="0"
             id="path7276"
             d="m 2251,3569 c -37,-36 -40,-75 -10,-113 46,-58 126,-19 182,90 14,27 14,34 3,43 -11,9 -21,1 -51,-39 -49,-67 -95,-90 -109,-55 -9,25 4,44 32,47 44,5 39,57 -5,58 -6,0 -25,-14 -42,-31 z" />
        </g>
      </g>
    </g>
    <path
       style="opacity:1;fill:#ffffff;fill-opacity:1;stroke-width:0.50507629"
       d="m 378.57381,354.50609 c -38.36671,-0.81763 -59.4949,-2.5237 -69.49146,-5.61132 -9.64204,-2.97812 -13.11056,-12.39016 -14.8301,-40.24237 -0.92282,-14.94723 -1.6737,-54.64367 -1.35402,-71.58187 0.44948,-23.81609 1.46777,-33.11494 4.23117,-38.63834 1.14533,-2.28923 1.83408,-3.00004 3.9152,-4.04061 l 2.52538,-1.26269 21.21321,0.0627 c 35.27579,0.10425 127.50097,3.29861 144.75616,5.01386 10.29963,1.02383 10.93133,1.28266 12.94151,5.30262 2.41062,4.82075 2.90082,8.93683 1.89357,15.89965 -0.49647,3.43192 -0.73249,7.51312 -0.60112,10.39403 1.45828,31.97886 1.51959,36.4914 0.92905,68.38301 -0.82467,44.53558 -1.35368,50.74372 -4.60229,54.00985 -1.384,1.39146 -1.80689,1.50558 -6.92714,1.86927 -8.48004,0.60234 -72.94485,0.90369 -94.59912,0.44221 z m 9.01665,-36.88537 c 4.81092,-2.18306 9.59127,-7.48126 13.03269,-14.44449 1.90177,-3.84798 1.93441,-5.31203 0.13981,-6.27247 -1.44473,-0.77319 -2.57128,0.0366 -5.83738,4.19611 -5.61819,7.15498 -9.53792,10.46941 -12.38141,10.46941 -1.69838,0 -2.96021,-1.62925 -2.96021,-3.82218 0,-1.9985 1.14822,-3.03719 4.58029,-4.14335 3.24238,-1.04502 4.51893,-2.74723 3.73401,-4.97912 -0.62701,-1.7829 -3.36543,-3.42849 -5.01596,-3.01424 -1.71237,0.42978 -7.20431,5.63369 -8.38224,7.94264 -3.21014,6.29239 1.81446,15.10891 8.59205,15.07623 1.26512,-0.006 3.28938,-0.45995 4.49835,-1.00854 z m -22.6441,-59.28339 c 1.10893,-0.73386 2.34948,-2.20228 3.00564,-3.55773 0.81085,-1.67499 1.4857,-2.38312 2.46031,-2.58167 5.04636,-1.02801 7.15135,-2.52043 7.15135,-5.07025 0,-1.81324 -2.21187,-2.16621 -18.68783,-2.98219 -8.19486,-0.40587 -17.98821,-0.9889 -21.763,-1.29565 -8.14176,-0.6616 -9.97977,-0.21575 -11.40152,2.76569 -2.34557,4.91872 2.99508,7.16393 18.26477,7.67849 4.44468,0.14978 8.68676,0.50092 9.42685,0.78031 0.7401,0.27939 1.61069,1.14789 1.93465,1.93 0.6169,1.48933 2.24993,3.20329 3.53825,3.71363 1.348,0.53396 4.1353,-0.1 6.07053,-1.38063 z m 48.67139,-1.51168 c 0.92205,-0.38526 2.17461,-1.40006 2.78346,-2.25512 1.42481,-2.00095 3.60695,-2.59091 9.64977,-2.60889 7.23677,-0.0215 16.93049,-0.88569 18.79752,-1.67571 3.40088,-1.43908 4.30682,-4.1043 1.84326,-5.42276 -1.82268,-0.97546 -13.50017,-1.53657 -34.0253,-1.63492 l -20.20305,-0.0968 -1.89489,1.17815 c -2.96064,1.84077 -3.23814,5.37052 -0.51959,6.60917 0.76881,0.35029 3.80352,0.81492 6.74381,1.0325 5.57754,0.41274 6.9108,0.83628 9.12451,2.8986 1.14179,1.06369 4.36429,2.58311 5.62901,2.65409 0.21726,0.0122 1.14944,-0.29304 2.07149,-0.6783 z"
       id="path78"
       inkscape:connector-curvature="0"
       transform="scale(0.26458333)" />
    <path
       style="opacity:0;fill:#ffffff;fill-opacity:1;stroke-width:0.50507629"
       d="m 387.41264,354.7003 c -41.68713,-0.61409 -67.7787,-2.54648 -78.31213,-5.79992 -10.76588,-3.32525 -13.73972,-13.38438 -15.44127,-52.23085 -0.82852,-18.91508 -0.85842,-73.4681 -0.0446,-81.31728 1.49044,-14.37465 3.05249,-18.77926 7.42993,-20.9507 2.38875,-1.18494 3.08203,-1.26329 12.81429,-1.44821 10.59661,-0.20133 29.26839,0.23993 82.64513,1.95312 60.64708,1.94655 78.1885,2.9968 83.23647,4.9836 1.87558,0.73819 4.16919,5.64967 4.91929,10.53402 0.45909,2.98946 0.409,4.65129 -0.27407,9.09138 -0.51494,3.34728 -0.75276,7.17845 -0.61943,9.97893 1.44746,30.40193 1.53752,36.94086 0.94605,68.69037 -0.82842,44.46947 -1.3636,50.74363 -4.6064,54.004 -1.36284,1.37021 -1.84146,1.50442 -6.6746,1.87151 -5.62107,0.42695 -68.64876,0.89591 -86.01869,0.64003 z m 0.68449,-37.3808 c 3.42422,-1.70636 6.99438,-5.21145 9.92921,-9.74822 4.32677,-6.6885 5.03234,-9.43888 2.73662,-10.66752 -1.47338,-0.78853 -2.47988,-0.0119 -6.47083,4.99264 -5.39863,6.76977 -8.96311,9.67288 -11.87653,9.67288 -2.51199,0 -3.86684,-4.46243 -1.8963,-6.24575 0.51444,-0.46556 2.15466,-1.23946 3.64495,-1.71978 4.7425,-1.52852 5.42333,-5.36293 1.30945,-7.37483 -2.38341,-1.16561 -3.11848,-0.88547 -7.01083,2.67192 -4.61338,4.21637 -6.01255,8.61371 -4.15661,13.06347 2.47509,5.93424 8.18188,8.15027 13.79087,5.35519 z m -25.03819,-57.9484 c 1.82698,-0.76485 5.41334,-4.48596 5.41334,-5.61674 0,-0.87868 1.53129,-1.78408 3.01738,-1.78408 3.13033,0 6.92509,-3.58859 5.75549,-5.44279 -0.84609,-1.34133 -2.76678,-1.58728 -18.62185,-2.38455 -8.33376,-0.41907 -17.99713,-1.00007 -21.47414,-1.2911 -7.57646,-0.63418 -9.74029,-0.16588 -11.256,2.43607 -2.87662,4.93818 2.7289,7.43596 17.91543,7.98297 4.53679,0.16341 8.85425,0.52534 9.59434,0.80427 0.7401,0.27894 1.61069,1.14707 1.93465,1.92918 1.42321,3.43593 4.42727,4.7458 7.72136,3.36677 z m 51.46643,-2.92398 c 0.46682,-0.2388 1.32893,-1.10851 1.9158,-1.9327 1.35517,-1.90316 3.62631,-2.53739 9.10473,-2.54255 6.84165,-0.006 17.60495,-0.9678 19.44551,-1.73684 2.22816,-0.93098 3.54212,-2.89761 2.82777,-4.23237 -0.28981,-0.54154 -0.931,-1.1432 -1.42485,-1.33704 -2.53754,-0.99598 -40.95989,-2.15098 -49.84883,-1.4985 -4.55185,0.33413 -5.11976,0.49361 -6.70067,1.88168 -1.36292,1.19665 -1.69511,1.83643 -1.57467,3.03267 0.25644,2.54711 1.93807,3.3247 8.28692,3.8319 5.84932,0.4673 7.14657,0.87427 9.36017,2.93649 2.49098,2.32061 5.94222,2.961 8.60812,1.59726 z"
       id="path80"
       inkscape:connector-curvature="0"
       transform="scale(0.26458333)" />
  </g>
</svg>
