<?xml version="1.0" encoding="UTF-8" standalone="no"?>
<svg
   xmlns:dc="http://purl.org/dc/elements/1.1/"
   xmlns:cc="http://creativecommons.org/ns#"
   xmlns:rdf="http://www.w3.org/1999/02/22-rdf-syntax-ns#"
   xmlns:svg="http://www.w3.org/2000/svg"
   xmlns="http://www.w3.org/2000/svg"
   xmlns:sodipodi="http://sodipodi.sourceforge.net/DTD/sodipodi-0.dtd"
   xmlns:inkscape="http://www.inkscape.org/namespaces/inkscape"
   version="1.0"
   width="421.000000pt"
   height="487.000000pt"
   viewBox="0 0 421.000000 487.000000"
   preserveAspectRatio="xMidYMid meet"
   id="svg7288"
   sodipodi:docname="Captura.svg"
   inkscape:version="0.92.4 (5da689c313, 2019-01-14)">
  <defs
     id="defs7292" />
  <sodipodi:namedview
     pagecolor="#ffffff"
     bordercolor="#666666"
     borderopacity="1"
     objecttolerance="10"
     gridtolerance="10"
     guidetolerance="10"
     inkscape:pageopacity="0"
     inkscape:pageshadow="2"
     inkscape:window-width="1360"
     inkscape:window-height="705"
     id="namedview7290"
     showgrid="false"
     inkscape:zoom="0.72689938"
     inkscape:cx="545.45165"
     inkscape:cy="213.38867"
     inkscape:window-x="-8"
     inkscape:window-y="-8"
     inkscape:window-maximized="1"
     inkscape:current-layer="g7286" />
  <metadata
     id="metadata7268">
Created by potrace 1.15, written by Peter Selinger 2001-2017
<rdf:RDF>
  <cc:Work
     rdf:about="">
    <dc:format>image/svg+xml</dc:format>
    <dc:type
       rdf:resource="http://purl.org/dc/dcmitype/StillImage" />
  </cc:Work>
</rdf:RDF>
</metadata>
  <g
     transform="matrix(0.1,0,0,-0.1,0,487)"
     id="g7286"
     style="fill:#000000;stroke:none">
    <path
       d="m 2558,4713 c -14,-16 -37,-46 -51,-67 -15,-22 -46,-53 -69,-68 -37,-25 -48,-28 -83,-21 -22,4 -70,8 -108,8 -75,-1 -103,-18 -123,-78 -11,-32 -12,-32 -70,-30 -195,8 -472,5 -496,-5 -41,-17 -55,-47 -74,-157 -15,-87 -16,-148 -11,-465 7,-417 14,-488 60,-580 35,-70 86,-111 164,-132 22,-6 287,-11 643,-14 l 605,-4 40,23 c 27,15 47,37 63,68 23,47 23,49 24,485 1,242 -1,459 -4,484 -4,25 -10,77 -16,115 -18,141 -42,158 -217,160 -60,1 -181,6 -269,10 l -159,8 82,44 c 78,43 92,58 71,79 -6,6 4,31 31,72 23,34 38,69 35,77 -9,23 -40,18 -68,-12 z m -298,-332 c 579,-18 691,-25 707,-47 26,-36 36,-96 24,-146 -7,-33 -8,-71 -1,-125 6,-47 8,-225 5,-447 -7,-387 -10,-414 -52,-431 -28,-11 -612,-13 -888,-3 -259,9 -383,26 -419,57 -60,53 -75,153 -83,556 -7,379 4,535 39,572 32,34 28,34 668,14 z"
       id="path7270"
       inkscape:connector-curvature="0" />
    <path
       d="m 1873,3989 c -41,-42 9,-69 127,-69 72,0 77,-1 88,-25 8,-16 20,-25 35,-25 25,0 57,28 57,48 0,7 11,12 24,12 26,0 50,23 44,41 -2,7 -46,12 -123,14 -65,2 -146,7 -179,10 -44,5 -65,3 -73,-6 z"
       id="path7272"
       inkscape:connector-curvature="0" />
    <path
       d="m 2365,3991 c -32,-7 -46,-38 -23,-52 7,-5 33,-9 58,-9 33,0 50,-6 63,-20 9,-11 28,-20 42,-20 14,0 29,8 35,20 9,17 22,20 93,21 45,1 95,4 112,8 37,8 46,38 13,45 -39,8 -361,14 -393,7 z"
       id="path7274"
       inkscape:connector-curvature="0" />
    <path
       d="m 2251,3569 c -37,-36 -40,-75 -10,-113 46,-58 126,-19 182,90 14,27 14,34 3,43 -11,9 -21,1 -51,-39 -49,-67 -95,-90 -109,-55 -9,25 4,44 32,47 44,5 39,57 -5,58 -6,0 -25,-14 -42,-31 z"
       id="path7276"
       inkscape:connector-curvature="0" />
    <path
       d="m 3550.7184,2948.8706 c -81,-55 -88,-95 -56,-328 12,-89 17,-191 17,-300 -1,-91 3,-201 8,-245 33,-275 44,-353 62,-460 24,-142 69,-285 113,-357 52,-88 130,-113 154,-51 18,45 42,178 42,231 0,27 8,67 17,88 14,33 17,77 17,279 0,233 -9,364 -39,570 -8,55 -18,179 -23,276 -8,165 -10,178 -35,221 -52,89 -199,129 -277,76 z"
       id="path7278"
       inkscape:connector-curvature="0" />
    <path
       d="m 2221,2971 c -12,-12 -21,-29 -21,-39 0,-37 30,-49 142,-56 99,-7 108,-6 127,13 25,25 26,40 7,67 -12,15 -27,19 -83,20 -37,0 -87,4 -110,8 -35,6 -45,4 -62,-13 z"
       id="path7280"
       inkscape:connector-curvature="0" />
    <path
       d="m 841.41101,2992.1123 c -46,-39 -72,-126 -79,-261 -6,-141 -40,-446 -60,-550 -9,-44 -24,-99 -34,-122 -16,-37 -23,-43 -49,-43 -17,0 -55,11 -86,25 -49,21 -83,42 -236,142 -79,52 -179,7 -179,-80 0,-12 11,-45 24,-74 44,-94 84,-136 201,-211 140,-89 177,-107 269,-132 135,-37 244,-26 297,31 35,38 82,168 102.99999,289 10,52 26,129 36,170 10,41 26,134 35,205 9,72 26,182 38,245 12,63 21,156 22,207 0,83 -2,94 -24,117 -27,29 -96,51 -185.99999,61 -56,7 -63,5 -92,-19 z"
       id="path7282"
       inkscape:connector-curvature="0" />
    <path
       d="m 1331,2853 c -27,-28 -29,-35 -37,-149 -5,-65 -8,-200 -7,-299 l 1,-180 46,-150 c 65,-217 111,-346 150,-417 19,-35 37,-74 41,-88 9,-31 87,-162 171,-290 34,-52 68,-107 76,-122 7,-15 36,-61 63,-103 28,-42 86,-131 130,-198 123,-187 268,-357 304,-357 13,0 38,23 68,63 26,34 102,130 169,214 67,83 142,180 165,215 24,35 64,90 89,123 56,72 120,181 160,269 16,36 57,114 92,173 113,191 177,340 209,488 54,252 69,360 69,496 0,147 -16,296 -33,318 -15,18 -83,10 -252,-28 -71,-16 -202,-41 -290,-56 -151,-25 -174,-27 -400,-22 -208,4 -264,9 -420,36 -99,17 -209,34 -245,37 -59,6 -213,35 -267,50 -17,5 -30,-1 -52,-23 z m 734,-136 130,-13 -64,-42 c -36,-23 -67,-44 -69,-47 -2,-2 33,-44 78,-92 45,-48 88,-102 96,-120 8,-18 14,-63 14,-100 0,-68 19,-283 45,-508 7,-66 11,-122 9,-125 -3,-2 -26,7 -51,20 -135,72 -288,382 -434,884 -27,93 -49,172 -49,176 0,4 37,0 83,-7 45,-8 141,-19 212,-26 z m 765,9 c 0,-26 -40,-211 -75,-341 -93,-356 -216,-607 -334,-685 -24,-17 -46,-28 -49,-26 -2,3 1,50 7,106 6,55 11,203 11,328 1,125 5,246 9,269 5,27 25,64 52,98 73,92 99,128 99,136 0,4 -28,28 -62,53 l -62,46 120,1 c 65,1 148,7 184,14 90,17 100,17 100,1 z m 307,-122 c 3,-8 1,-25 -5,-37 -5,-12 -13,-30 -16,-40 -5,-16 -18,-17 -118,-15 -104,3 -113,5 -116,23 -3,11 -10,24 -18,28 -8,4 -14,14 -14,20 0,31 25,37 152,37 108,0 130,-3 135,-16 z M 2547,1117 c 62,-2 115,-6 119,-9 7,-8 -78,-126 -166,-233 -37,-44 -104,-127 -150,-184 l -84,-104 -63,69 c -74,81 -212,273 -249,347 -14,29 -42,68 -60,88 l -35,36 288,-4 c 158,-2 339,-5 400,-6 z"
       id="path7284"
       inkscape:connector-curvature="0" />
    <path
       style="opacity:1;fill:#ffffff;fill-opacity:1;stroke-width:7.50000048"
       id="path7308"
       d="m 275.97207,2103.4207 c 0.4074,-0.9755 -1.3355,0.4117 -1.94863,0.6742 -1.62584,0.8149 -3.12332,1.7465 -4.67019,2.699 -1.97273,0.6773 -3.69107,1.877 -5.52831,2.839 -2.33269,1.2473 -4.53456,2.7017 -6.9161,3.8589 -2.54434,1.5152 -5.17239,2.8751 -7.76823,4.2974 -2.42491,1.5719 -4.99879,2.8506 -7.59031,4.1145 -2.40431,1.3933 -4.94718,2.5314 -7.4817,3.6633 -2.32959,0.9048 -4.6821,1.724 -7.01747,2.6118 -2.27542,0.8853 -4.55431,1.7221 -6.91323,2.3627 -2.11609,0.5535 -4.27065,0.9361 -6.42847,1.2834 -2.10735,0.4125 -4.20405,0.564 -6.34004,0.5385 -0.98329,0.1455 -1.86359,-0.156 -2.79422,-0.3795 -0.31313,-0.075 -1.27071,-0.18 -0.94868,-0.183 21.82134,-0.2025 26.1418,-0.7587 18.69609,0.1297 -1.59465,0.2873 -3.18777,0.5678 -4.80987,0.6173 -1.33112,0.091 -2.61141,-0.03 -3.86964,-0.4725 -1.19607,-0.5108 -2.3958,-1.0975 -3.5078,-1.7754 -1.11425,-0.7736 -1.93519,-1.8527 -2.6875,-2.9627 -0.75096,-1.0959 -1.27009,-2.301 -1.76676,-3.5238 -0.49522,-1.4151 -0.60855,-2.8933 -0.70185,-4.3758 -0.0645,-1.9259 0.12938,-3.8404 0.3738,-5.7469 0.28673,-2.2976 0.68018,-4.5818 1.11826,-6.8551 0.40163,-2.3313 0.98816,-4.6228 1.55292,-6.9183 0.61613,-2.1802 1.2815,-4.3468 2.04965,-6.479 0.87766,-2.5778 1.85868,-5.1137 2.87436,-7.6393 0.96878,-2.3263 2.12752,-4.5598 3.25264,-6.8116 1.14,-2.4705 2.41025,-4.8707 3.6971,-7.2654 1.18567,-2.2551 2.48958,-4.4383 3.81749,-6.6114 1.34557,-2.0364 2.78561,-4.0017 4.22674,-5.9712 1.66092,-1.8687 3.26666,-3.7893 4.96977,-5.6208 1.73904,-1.9487 3.45935,-3.9189 5.26971,-5.8026 1.53386,-1.7541 3.17841,-3.4281 4.99959,-4.8851 1.01859,-0.7879 2.23084,-0.9665 2.19516,0.6 -0.5907,8.67 -17.45145,8.7281 -22.22584,1.923 -0.34755,-0.9466 -1.59504,-2.0485 -0.89155,-3.1023 1.16625,0.168 1.96619,0.918 2.6954,1.7822 1.29245,1.3939 2.28261,3.0233 3.49016,4.4838 1.38457,1.8327 2.56923,3.8067 3.74929,5.7744 1.38038,2.3003 2.60379,4.692 3.88515,7.0485 1.34949,2.6663 2.68718,5.3397 3.99732,8.0259 1.38795,2.8218 2.7461,5.6583 4.15363,8.4702 1.44449,3.0322 2.94908,6.0351 4.3973,9.0653 1.48681,3.0836 2.97533,6.1663 4.47422,9.2441 1.44458,2.9192 2.88064,5.843 4.23731,8.8042 0.99245,2.0938 1.96745,4.1951 2.88807,6.3215 7.53431,27.8888 47.3734,17.1261 39.83909,-10.7627 v 0 c -1.04327,-2.5903 -2.139,-5.1599 -3.38752,-7.6592 -1.51211,-3.0298 -2.89088,-6.1257 -4.41994,-9.1479 -1.49025,-2.9622 -2.88261,-5.972 -4.37675,-8.9323 -1.44983,-3.0089 -2.86098,-6.0364 -4.33162,-9.0352 -1.34063,-2.9252 -2.77864,-5.8047 -4.16297,-8.7094 -1.3654,-2.7959 -2.69975,-5.6078 -4.05007,-8.4102 -1.33503,-2.8014 -2.82765,-5.5216 -4.20784,-8.2999 -1.38284,-2.5691 -2.81459,-5.1106 -4.26073,-7.6443 -1.3308,-2.263 -2.9015,-4.3661 -4.36549,-6.5444 -1.86906,-2.5313 -3.56737,-5.2035 -5.77095,-7.4722 -2.74093,-2.9658 -5.73258,-5.756 -9.39171,-7.5589 -10.16331,-4.642 -22.59847,-3.4335 -31.48048,2.7885 -3.02004,2.2979 -5.80143,4.8556 -8.28165,7.7358 -1.979,2.1605 -3.94828,4.3284 -5.88592,6.5261 -1.84323,2.1422 -3.70004,4.2717 -5.50497,6.4467 -2.09304,2.5902 -4.22648,5.1553 -6.05245,7.947 -1.84472,2.665 -3.635,5.3714 -5.21649,8.203 -1.46725,2.6017 -2.87369,5.2362 -4.23724,7.8938 -1.34082,2.6435 -2.59233,5.3316 -3.90193,7.9908 -1.39401,2.9254 -2.67596,5.9037 -3.81023,8.94 -1.13106,2.949 -2.22248,5.9142 -3.28441,8.8887 -0.94576,2.9157 -1.83118,5.8517 -2.53284,8.8371 -0.68535,2.8178 -1.28399,5.6532 -1.79128,8.5088 -0.51263,2.8863 -0.97232,5.7808 -1.28457,8.6968 -0.36128,3.3657 -0.61515,6.7467 -0.50033,10.1349 0.11183,3.5354 0.40815,7.0663 1.24212,10.5145 0.80619,3.368 1.87407,6.6719 3.40488,9.7877 1.54615,3.1575 3.25556,6.2389 5.37761,9.0528 2.19094,2.854 4.59063,5.5044 7.41889,7.75 2.90505,2.3194 5.92266,4.5182 9.31153,6.0893 3.33066,1.5058 6.75801,2.8236 10.3767,3.4493 10.13296,1.5344 20.4834,1.3878 30.4085,-0.9348 2.92346,-0.69 5.82288,-1.4957 8.707,-2.3352 2.85311,-0.9015 5.67978,-1.8866 8.43834,-3.0496 2.62015,-1.0965 5.23435,-2.2081 7.85204,-3.3077 2.80673,-1.2231 5.59003,-2.4857 8.25894,-3.9973 2.67199,-1.4092 5.30801,-2.8814 7.98658,-4.2772 2.6149,-1.4598 5.14045,-3.0792 7.84223,-4.3805 2.5482,-1.3689 5.04248,-2.8376 7.6563,-4.0823 2.26709,-1.2928 4.58545,-2.4635 6.94183,-3.5838 1.9945,-1.0418 4.12216,-1.8176 5.99149,-3.0956 1.45369,-0.6735 2.95319,-1.2461 4.38279,-2.0233 1.34846,-0.7709 2.77809,-1.2793 3.88223,-2.4325 18.45118,-23.1595 -14.63219,-49.517 -33.08336,-26.3575 z"
       inkscape:connector-curvature="0" />
    <path
       style="opacity:1;fill:#ffffff;fill-opacity:1;stroke-width:7.50000048"
       id="path7310"
       d="m 316.822,2105.0592 c -0.76783,-1.9772 -1.818,-3.8377 -3.08638,-5.5362 -1.09246,-1.5597 -2.29818,-3.0239 -3.60179,-4.4105 -1.38742,-1.6702 -2.73728,-3.3669 -4.01179,-5.1249 -1.47901,-1.9998 -2.93874,-4.006 -4.29592,-6.0907 -1.55969,-2.2966 -2.99688,-4.6714 -4.48909,-7.0118 -1.40381,-2.1801 -2.78407,-4.3767 -4.08296,-6.6212 -1.34786,-2.2154 -2.63518,-4.4662 -3.94825,-6.7025 -1.43923,-2.3908 -2.8748,-4.7812 -4.38727,-7.1265 -1.6608,-2.6156 -3.46026,-5.1377 -5.34078,-7.5989 -1.94229,-2.6181 -4.14091,-5.0324 -6.3278,-7.4457 -1.99735,-2.061 -4.01311,-4.1033 -6.08926,-6.0853 -1.88214,-1.8732 -3.87546,-3.6277 -5.84664,-5.4056 -1.86324,-1.5336 -3.51634,-3.2874 -5.20216,-5.0075 -2.54038,-2.8399 -5.24412,-5.5075 -8.11045,-8.0155 -3.2118,-2.5315 -6.83024,-4.4589 -10.71502,-5.715 -19.00732,-1.0464 -19.53091,-2.9571 -31.15187,3.7521 -3.05991,1.6969 -5.58482,4.0416 -7.96412,6.5748 -2.17664,2.1699 -3.94611,4.6776 -5.85213,7.0725 -1.61285,2.1322 -3.11581,4.3437 -4.59473,6.5695 -1.40453,2.1212 -2.64332,4.3476 -4.02224,6.4831 -1.30013,2.2343 -2.58168,4.4839 -3.76262,6.7843 -1.20786,2.2765 -2.3173,4.6065 -3.35926,6.9634 -1.09168,2.5445 -2.12039,5.1156 -3.15777,7.6826 -1.16707,2.9837 -2.16815,6.0328 -3.08784,9.1011 -1.0143,3.0276 -1.80249,6.1219 -2.69784,9.1842 -0.89331,3.0225 -1.66894,6.0772 -2.38511,9.146 -0.69187,3.1585 -1.25138,6.3432 -1.76398,9.535 -0.50107,3.0669 -0.85347,6.1541 -1.18396,9.2431 -0.38843,3.3286 -0.62715,6.6657 -0.65205,10.0165 -0.008,3.5974 0.4854,7.1551 1.18766,10.674 0.6924,3.3915 1.94351,6.6187 3.38723,9.7516 1.47481,3.0504 3.49613,5.7659 5.62068,8.3856 2.19708,2.607 4.85271,4.7369 7.64306,6.6681 2.56777,1.7309 5.34181,3.1072 8.1926,4.2999 2.85471,1.2914 5.87583,2.0574 8.88003,2.8963 9.55969,2.5084 19.56741,2.2919 29.4,0.9228 3.29692,-0.633 6.38286,-1.9791 9.39289,-3.4219 2.73704,-1.1107 5.31025,-2.5496 7.94328,-3.8736 2.46353,-1.1926 4.72988,-2.7339 7.17717,-3.9545 2.19838,-1.1239 4.29489,-2.4556 6.59448,-3.368 2.41039,-1.0016 4.83521,-1.9934 7.17033,-3.1688 2.89976,-1.1085 5.52402,-2.6928 8.04282,-4.489 3.10383,-2.122 5.56183,-4.8827 7.62575,-7.9941 2.38601,-3.7092 3.36349,-7.945 3.79638,-12.2733 0.24547,-2.9306 -0.0901,-5.8521 -0.42765,-8.7587 -0.35445,-2.9374 -1.02661,-5.8204 -1.63459,-8.7117 -0.70132,-3.4475 -1.65393,-6.8331 -2.65205,-10.2039 -1.01295,-3.5593 -2.25129,-7.0482 -3.58926,-10.4967 -1.34483,-3.4467 -3.01326,-6.7505 -4.67822,-10.0498 -1.67832,-3.278 -3.62235,-6.4079 -5.71833,-9.4325 -1.76238,-2.5635 -3.53936,-5.1206 -5.4253,-7.5952 -1.6739,-2.2498 -3.44902,-4.4201 -5.19498,-6.6134 -1.21578,-1.2155 -1.96655,-2.6563 -2.60266,-4.2287 -0.79277,-2.155 -1.56823,-4.314 -2.45469,-6.4327 -0.74423,-1.7631 -4.94504,-9.1572 -6.51278,-9.0541 -31.72067,2.0849 -27.65261,-3.8972 -34.02335,8.3414 -1.48071,3.2249 -1.98361,6.7175 -2.35389,10.2077 -0.24975,2.3637 -0.3609,4.7383 -0.47257,7.1115 -0.13118,2.435 -0.17768,4.8741 -0.31958,7.3083 -0.1107,2.3503 -0.37155,4.6881 -0.61965,7.0267 -0.24885,2.5136 -0.66465,5.0081 -1.08747,7.4972 -0.5745,2.739 -1.06532,5.4945 -1.73596,8.2123 -0.708,2.8005 -1.34239,5.6208 -2.17934,8.3865 -0.86453,2.7629 -1.56025,5.5733 -2.3287,8.363 -0.7074,2.856 -1.42958,5.7081 -2.13258,8.5652 -0.76641,3.0307 -1.35463,6.0999 -1.90284,9.1761 -0.77211,3.7123 -0.88748,7.4446 -0.5439,11.208 0.77722,5.1675 2.92845,9.9077 6.71121,13.615 1.16684,1.1436 2.27865,2.8079 3.90516,2.962 8.03226,0.761 16.13525,-0.1987 24.20288,-0.2985 3.21484,-1.8768 5.66149,-4.6794 8.38246,-7.1459 1.54137,-1.3658 2.82527,-3.0896 4.51812,-4.2719 1.84317,-1.7219 3.57257,-3.5817 5.16942,-5.5328 2.2589,-2.7146 4.01345,-5.7427 5.51243,-8.9253 1.54708,-3.7154 2.59048,-7.6086 3.48535,-11.524 0.82387,-3.8976 1.32368,-7.851 1.74514,-11.809 0.44497,-4.2029 0.80568,-8.4146 1.1306,-12.6283 0.34395,-4.204 0.64545,-8.409 0.72052,-12.6271 0.0615,-4.5663 -0.69172,-9.0493 -1.89842,-13.4354 -1.48589,-5.3114 -4.47711,-9.7396 -8.3435,-13.5913 -9.56456,-7.7321 -13.22942,-4.6395 -29.92638,-2.7626 -1.58472,0.1785 -5.6598,4.5891 -6.858,5.8277 -3.05453,3.4188 -5.35962,7.401 -7.54101,11.4088 -1.90824,3.653 -3.42163,7.4886 -4.80703,11.3641 -1.35871,3.7738 -2.34842,7.6602 -3.17862,11.5795 -0.8907,4.0698 -1.04191,8.2122 -0.81231,12.3555 0.258,4.1423 1.48517,8.0744 3.06521,11.8795 1.57521,3.5546 3.93545,6.6145 6.59434,9.4138 2.47977,2.4779 5.33414,4.5301 8.27857,6.4138 9.23352,5.7795 20.69167,6.2484 31.33074,2.1855 1.89513,-0.7572 3.88912,-1.1491 5.90188,-1.4213 1.64623,-0.3802 3.24515,-0.1297 4.89414,-0.037 0.77674,0.2798 0.4302,0.088 1.05022,0.555 25.3389,-14.4659 4.67441,-50.6625 -20.66449,-36.1966 v 0 c -2.05848,0.4448 -1.04998,0.2273 -3.02548,0.654 -2.41404,0.4298 -4.77042,1.1028 -7.17666,1.5758 -1.61583,0.363 -3.38381,0.9862 -5.03666,0.6615 -4.39393,-7.8227 22.82322,-6.7058 21.24191,1.5571 -0.63608,0.8717 -1.36935,0.7208 -2.34879,0.5985 -0.58493,-0.015 -1.24113,-0.06 -1.69987,0.3653 -0.3363,0.528 -0.82362,-0.2723 -0.98867,-0.6233 -0.34612,-1.3548 -0.0976,-2.7651 0.14693,-4.1175 0.56527,-2.5615 1.34114,-5.067 2.32552,-7.5 0.92553,-2.2347 1.92228,-4.4634 3.37574,-6.4132 0.44182,-0.5813 2.07958,-3.1869 2.517,-1.4216 -1.82786,8.8239 -22.86534,9.5394 -27.35328,0.5857 -0.18338,-0.339 -2.92418,-5.5407 -1.30839,-5.2054 1.15162,0.6285 1.01463,2.6652 1.22738,3.7456 0.10065,3.494 -0.16755,6.9774 -0.43695,10.4596 -0.3093,3.7835 -0.62917,7.5678 -1.15984,11.3283 -0.4365,2.8533 -0.89483,5.7125 -1.68525,8.4935 -0.42547,1.4724 -0.75807,3.3716 -1.88614,4.4734 -0.85249,0.8653 -1.76373,1.6867 -2.70638,2.4565 -1.31015,0.9945 -2.50536,2.1444 -3.85525,3.0975 -1.07044,1.0315 -2.27714,2.1469 -3.65689,2.7195 -2.11021,1.1028 1.16609,-3.4701 1.68446,-3.1932 7.76397,-0.06 15.56802,-0.9673 23.29191,-0.177 1.40116,0.1433 2.1792,1.8066 3.09513,2.8766 2.61918,3.0598 4.32185,6.6643 4.49413,10.6942 -0.3201,2.1177 -0.3282,-0.5302 -0.0948,-1.2178 0.48473,-2.5203 1.04408,-5.0252 1.66886,-7.5146 0.67207,-2.688 1.32608,-5.3812 2.06619,-8.0515 0.7182,-2.7501 1.47868,-5.4884 2.22318,-8.2314 0.79494,-3.1454 1.57114,-6.2954 2.30517,-9.4556 0.72015,-3.2475 1.405,-6.5041 2.01865,-9.7734 0.53603,-3.0699 1.05609,-6.1473 1.38392,-9.2472 0.30382,-2.7989 0.61095,-5.5989 0.77115,-8.4106 0.1332,-2.3783 0.21885,-4.7595 0.40155,-7.1349 0.13852,-1.6824 0.2925,-3.3665 0.5757,-5.0317 0.52582,-2.4238 0.0135,2.3222 -0.44228,2.361 -0.3201,0.6908 -0.21532,1.9151 -0.96034,2.0732 -22.8284,4.8459 -26.18895,13.0867 -34.57826,1.8678 -0.95529,-1.2775 -1.68429,-2.8089 -2.00848,-4.3733 0.10763,-1.1468 1.67676,1.9427 1.67271,2.2512 1.52267,3.4423 2.90223,6.967 4.97065,10.1335 1.70424,2.4676 3.53525,4.8325 5.4238,7.1615 1.68085,2.1815 3.42979,4.3094 5.07105,6.5219 1.53679,2.1506 3.23158,4.1846 4.58797,6.46 1.40553,2.3357 2.63223,4.7782 3.82436,7.2283 1.12651,2.5159 2.11298,5.0899 2.97727,7.7078 0.77207,2.6167 1.60097,5.2291 2.0664,7.9223 0.41573,2.0884 0.8185,4.1886 1.08456,6.3006 0.0897,0.8043 0.1548,1.9133 0.1986,2.5728 0.0792,-1.137 0.3747,-2.2241 0.52343,-3.3501 0.19245,-1.2555 -1.37027,-0.1777 -1.96553,-0.03 -2.1418,0.7028 -4.21617,1.5505 -6.22091,2.587 -2.62707,1.0961 -5.17859,2.3727 -7.69112,3.7066 -2.33637,1.3264 -4.72478,2.551 -7.10881,3.7881 -1.95169,1.0764 -3.99055,1.9438 -6.07078,2.7406 -1.76785,0.6952 -3.63757,1.1397 -5.5056,1.4709 -1.26917,-0.1178 -2.42108,-0.57 -3.64348,-0.9 -8.7232,-0.8997 29.58825,-1.4058 16.01842,0.5415 -1.6965,0.2325 -3.48966,0.06 -5.18682,-0.01 -1.49517,-0.2107 -2.99866,-0.351 -4.47288,-0.6915 -1.02987,-0.2062 -2.0579,-0.4582 -3.10521,-0.5535 -0.82274,0.075 -1.47271,-0.7402 -2.13124,-1.1421 -0.78956,-0.423 -1.08638,-1.3263 -1.53954,-2.0497 -0.4848,-1.3553 -0.77255,-2.7603 -0.84827,-4.1999 -0.0517,-2.3263 0.23903,-4.6356 0.47835,-6.9462 0.29565,-2.6088 0.6381,-5.2124 1.05466,-7.8048 0.4221,-2.541 0.87914,-5.0784 1.50344,-7.5788 0.64538,-2.665 1.35458,-5.3134 2.11197,-7.9489 0.76767,-2.7657 1.62144,-5.5061 2.54034,-8.2253 0.81986,-2.3064 1.65375,-4.6086 2.65961,-6.8421 0.94003,-2.1743 1.87656,-4.3513 2.96155,-6.4588 0.93459,-1.824 1.88064,-3.6408 2.89761,-5.4206 1.02099,-1.7374 1.99314,-3.5014 3.13019,-5.1679 1.08714,-1.782 2.2882,-3.4986 3.51633,-5.1856 1.13589,-1.5219 2.27116,-3.041 3.59001,-4.4147 0.93701,-1.0595 2.07028,-1.9933 3.35183,-2.6086 0.40448,0.03 0.84069,0.4252 1.2085,0.4207 0.21622,0 0.41347,-0.1507 0.62962,-0.156 0.12638,0 0.23745,0.087 0.35618,0.1305 0.88807,0.2138 0.0942,-0.12 0.465,0.5475 0.0675,0.1208 0.29257,0.1073 0.34102,0.237 0.0675,0.1815 -0.18547,0.9963 -0.219,1.1203 -6.84582,-0.15 -13.69165,-0.3007 -20.53748,-0.4507 0.51113,-0.8258 0.45743,-1.9799 1.38973,-2.5704 0.84367,-1.3945 2.95996,0.846 3.66945,1.4673 1.97464,2.0418 3.91651,4.11 5.87546,6.1665 1.89116,1.8174 3.80052,3.6145 5.81632,5.2926 1.88099,1.7391 3.79479,3.4407 5.62056,5.2372 1.73711,1.5212 3.27116,3.2427 4.94305,4.8308 1.48539,1.7514 2.96604,3.5081 4.27827,5.3946 1.36515,1.9854 2.76015,3.9514 3.93635,6.0586 1.37418,2.1867 2.67332,4.4177 3.98136,6.6439 1.51148,2.3854 2.85072,4.8775 4.36829,7.2603 1.51485,2.3693 3.04968,4.7247 4.52068,7.1212 1.54807,2.4281 2.98742,4.9292 4.69969,7.2486 1.42969,2.0662 2.76211,4.1974 4.25761,6.218 0.98643,1.4554 2.032,2.8625 3.21837,4.1537 0.36877,0.4928 1.1635,1.4652 0.5874,-0.01 8.35301,28.4225 48.95436,16.4902 40.60135,-11.9322 z"
       inkscape:connector-curvature="0" />
    <path
       style="opacity:1;fill:#ffffff;fill-opacity:1;stroke-width:7.50000048"
       id="path7312"
       d="m 202.98096,2103.1924 c -1.07267,1.4649 -2.23689,2.8686 -3.44023,4.2319 -0.93077,1.0212 -0.45637,0.5055 -1.42369,1.5458 -14.59158,25.2285 21.4474,46.0726 36.03899,20.844 v 0 c 1.00445,-0.9432 0.50925,-0.4852 1.48469,-1.3744 0.15757,-0.1358 2.89707,-2.4961 2.04894,-1.0127 16.96503,-24.2974 -17.74367,-48.5319 -34.7087,-24.2346 z"
       inkscape:connector-curvature="0" />
    <path
       style="opacity:1;fill:#000000;fill-opacity:1;stroke-width:7.50000048"
       id="path7324"
       d="m 3917.2268,1624.8339 c -0.2423,-1.3476 -0.6383,-2.6571 -1.0259,-3.9687 -0.303,-0.8384 -0.5805,-1.682 -0.8006,-2.5459 -0.3105,-1.2818 -0.4867,-2.5898 -0.675,-3.8935 -0.2452,-1.3783 -0.1972,-2.7703 -0.1687,-4.1615 -0.03,-1.8275 0.216,-3.6283 0.462,-5.4329 0.3442,-2.4327 0.6555,-4.8698 0.9396,-7.3102 0.3007,-2.6048 0.5355,-5.2163 0.7485,-7.8296 0.1462,-2.3906 0.3652,-4.7728 0.6097,-7.1549 0.2588,-2.4725 0.4793,-4.9487 0.6803,-7.4266 0.204,-2.6481 0.3442,-5.3007 0.4837,-7.9529 0.1898,-2.8806 0.2295,-5.7648 0.2243,-8.6505 0,-2.9738 -0.168,-5.9439 -0.3323,-8.9121 -0.2475,-3.2405 -0.6765,-6.4642 -1.1617,-9.6768 -0.4433,-2.8145 -0.8783,-5.6303 -1.3461,-8.4409 -0.4583,-2.682 -0.8668,-5.3718 -1.2388,-8.0669 -0.3525,-2.5758 -0.6315,-5.1607 -0.8858,-7.7478 -0.2482,-2.5618 -0.4387,-5.1286 -0.6127,-7.6963 -0.1658,-2.8632 -0.4373,-5.7187 -0.7223,-8.572 -0.2895,-3.0131 -0.7155,-6.0081 -1.1754,-8.9988 -0.4635,-2.728 -0.9453,-5.4531 -1.4643,-8.171 -0.513,-2.6631 -1.0996,-5.3113 -1.6329,-7.9704 -0.501,-2.6455 -1.0388,-5.2839 -1.5401,-7.9293 -0.4785,-2.5564 -0.8685,-5.1279 -1.2919,-7.6938 -0.4455,-2.868 -0.9408,-5.7276 -1.4452,-8.5857 -0.5055,-2.9232 -1.1144,-5.8257 -1.7144,-8.7304 -0.5602,-2.7073 -1.0336,-5.4313 -1.5649,-8.1443 -0.5333,-2.821 -1.0477,-5.6456 -1.5479,-8.4726 -0.4935,-2.8835 -1.0147,-5.762 -1.5143,-8.6444 -0.5047,-3.0691 -1.1486,-6.1132 -1.8519,-9.1423 -0.6817,-2.763 -1.2998,-5.5413 -1.9386,-8.3145 -0.642,-2.8674 -1.3515,-5.7192 -2.1168,-8.556 -0.672,-2.4723 -1.3044,-4.955 -1.9525,-7.4337 -0.7155,-2.7984 -1.5555,-5.5618 -2.3848,-8.3279 -0.8345,-2.8858 -1.7441,-5.7479 -2.6747,-8.6037 -0.9102,-2.6023 -1.7166,-5.2387 -2.5944,-7.8515 -0.8685,-2.4809 -1.6869,-4.9786 -2.5099,-7.4747 -0.8246,-2.6355 -1.641,-5.2728 -2.4744,-7.9056 -0.9262,-2.8191 -1.9229,-5.6141 -2.8925,-8.4184 -1.0635,-3.0068 -2.2637,-5.9614 -3.4343,-8.9272 -1.2738,-3.2805 -2.67,-6.5097 -4.0644,-9.7399 -1.4701,-3.4087 -3.1138,-6.7386 -4.7315,-10.0788 -1.4887,-3.1875 -3.0839,-6.3232 -4.6403,-9.4779 -1.5017,-3.1284 -3.1272,-6.1945 -4.7784,-9.2458 -1.0417,-1.9385 -0.5145,-0.9392 -1.5786,-2.9992 -9.2801,-27.2311 -48.1798,-13.9747 -38.8997,13.2565 v 0 c 1.0563,1.909 0.5257,0.9158 1.585,2.9826 1.4943,2.846 3.0537,5.6572 4.52,8.5179 1.5226,3.0359 3.0419,6.0721 4.6287,9.0753 1.4549,3.0559 2.9659,6.0846 4.3671,9.166 1.281,2.8911 2.5129,5.8036 3.729,8.7222 1.0715,2.7626 2.0975,5.5441 3.1288,8.322 0.9841,2.5297 1.7737,5.1282 2.6542,7.6946 0.8972,2.5156 1.6311,5.0855 2.3998,7.6426 0.8471,2.6784 1.7348,5.3443 2.6361,8.0049 0.9048,2.5541 1.696,5.1426 2.5766,7.7055 0.8763,2.4758 1.7164,4.9653 2.4737,7.48 0.7267,2.5336 1.501,5.0542 2.1747,7.6025 0.6862,2.572 1.2827,5.1675 1.9945,7.733 0.6893,2.4484 1.4151,4.8848 2.0248,7.3552 0.6525,2.8505 1.3183,5.6975 1.949,8.553 0.6075,2.4676 1.1757,4.9425 1.6417,7.4414 0.5063,2.8963 1.0818,5.78 1.552,8.6821 0.513,2.9429 1.0506,5.8812 1.5432,8.8275 0.5212,2.8617 1.0873,5.7149 1.6214,8.5743 0.5483,2.6952 1.1576,5.3772 1.6448,8.0843 0.4987,2.6836 0.9096,5.3831 1.3356,8.079 0.4402,2.7924 0.8447,5.5909 1.3542,8.3719 0.5032,2.7284 1.0649,5.4449 1.5795,8.1709 0.5085,2.6496 1.0608,5.2901 1.5819,7.9372 0.492,2.4798 0.9377,4.9675 1.4046,7.4521 0.45,2.3937 0.7829,4.8109 1.0448,7.232 0.2692,2.5368 0.4552,5.0832 0.6382,7.6274 0.1943,2.844 0.408,5.6869 0.6833,8.5244 0.2887,2.9394 0.6052,5.8764 1.0012,8.8035 0.4005,2.9406 0.8365,5.8763 1.3241,8.8039 0.444,2.7348 0.8546,5.4749 1.3076,8.2082 0.3735,2.313 0.7095,4.6322 0.9224,6.9664 0.1403,2.4422 0.3068,4.8863 0.2978,7.3337 -0.01,2.3817 -0.093,4.7605 -0.2445,7.1378 -0.1388,2.3918 -0.3,4.7821 -0.5138,7.1684 -0.2017,2.3402 -0.426,4.6781 -0.66,7.0152 -0.2377,2.5139 -0.411,5.0322 -0.6097,7.5493 -0.1988,2.2789 -0.417,4.5562 -0.6998,6.8265 -0.291,2.3221 -0.6157,4.6396 -0.9429,6.9569 -0.3585,2.7305 -0.6232,5.4699 -0.7132,8.2236 -0.108,2.6972 -0.091,5.4 0.159,8.0899 0.1777,2.0838 0.4162,4.1624 0.7432,6.2284 0.2843,1.7309 0.5948,3.4593 1.0367,5.1582 0.1117,0.39 0.5857,2.5768 0.327,1.0789 3.5627,29.4221 45.5922,24.3329 42.0295,-5.0893 z"
       inkscape:connector-curvature="0" />
  </g>
</svg>
